<svg width="24" height="24" viewBox="0 0 24 24" fill="none" xmlns="http://www.w3.org/2000/svg">
<path d="M5.75107 16.2031L5.01878 16.5762L5.09236 17.0648L4.64825 17.2911L4.37 14.8796L4.75703 14.6824L6.5486 16.3228L6.10449 16.5491L5.75107 16.2031ZM4.95917 16.1805L5.46593 15.9223L4.82456 15.2933L4.95917 16.1805Z" fill="#00D615"/>
<path d="M6.93426 15.2267L7.29816 15.9409L6.8805 16.1537L5.84767 14.1267L6.63844 13.7238C6.79066 13.6462 6.93849 13.606 7.08196 13.603C7.22635 13.5996 7.35588 13.6335 7.47056 13.7049C7.58476 13.7753 7.67521 13.8759 7.74189 14.0068C7.84309 14.2054 7.85479 14.397 7.777 14.5816C7.69966 14.7648 7.54079 14.9177 7.30041 15.0402L6.93426 15.2267ZM6.76189 14.8884L7.13499 14.6983C7.24544 14.642 7.3162 14.5732 7.34726 14.4919C7.37925 14.4102 7.37065 14.321 7.32147 14.2245C7.27087 14.1252 7.20073 14.0598 7.11104 14.0283C7.02136 13.9969 6.92453 14.0065 6.82056 14.0571L6.43771 14.2522L6.76189 14.8884Z" fill="#00D615"/>
<path d="M8.91731 14.2163L9.28121 14.9305L8.86355 15.1433L7.83072 13.1163L8.62149 12.7134C8.7737 12.6358 8.92154 12.5955 9.065 12.5926C9.20939 12.5892 9.33893 12.6231 9.45361 12.6945C9.56781 12.7649 9.65825 12.8655 9.72493 12.9964C9.82613 13.195 9.83784 13.3866 9.76004 13.5712C9.6827 13.7544 9.52384 13.9073 9.28345 14.0297L8.91731 14.2163ZM8.74493 13.878L9.11804 13.6879C9.22849 13.6316 9.29924 13.5628 9.3303 13.4815C9.36229 13.3998 9.3537 13.3106 9.30452 13.2141C9.25391 13.1148 9.18377 13.0494 9.09409 13.0179C9.0044 12.9865 8.90758 12.9961 8.80361 13.0467L8.42075 13.2418L8.74493 13.878Z" fill="#00D615"/>
<path d="M11.2189 13.0085L10.8862 13.178L11.2643 13.9201L10.8466 14.1329L9.81377 12.1059L10.5669 11.7221C10.8064 11.6001 11.0183 11.5593 11.2026 11.5999C11.3869 11.6404 11.5288 11.7581 11.6281 11.953C11.6985 12.0913 11.7272 12.2222 11.7142 12.3458C11.7016 12.4679 11.6485 12.5874 11.5548 12.7041L12.4154 13.309L12.4253 13.3285L11.9771 13.5569L11.2189 13.0085ZM10.7138 12.8397L11.0507 12.6681C11.1556 12.6146 11.2233 12.5468 11.2539 12.4646C11.284 12.3814 11.2752 12.293 11.2274 12.1992C11.1787 12.1036 11.113 12.0424 11.0304 12.0156C10.9486 11.9882 10.8516 12.0032 10.7393 12.0604L10.4038 12.2314L10.7138 12.8397Z" fill="#00D615"/>
<path d="M13.9822 11.3164C14.0839 11.516 14.1378 11.7089 14.1438 11.8952C14.1499 12.0815 14.1079 12.2491 14.0177 12.3979C13.9284 12.5463 13.7989 12.6637 13.629 12.7503C13.461 12.8358 13.2906 12.8718 13.1176 12.8583C12.9447 12.8447 12.784 12.7816 12.6354 12.669C12.4864 12.5556 12.3618 12.4016 12.2616 12.2072L12.2105 12.107C12.1088 11.9074 12.0552 11.7138 12.0496 11.5261C12.0444 11.337 12.0867 11.1687 12.1764 11.0213C12.2666 10.8725 12.3961 10.755 12.565 10.6689C12.734 10.5829 12.9047 10.5473 13.0771 10.5623C13.2501 10.5759 13.4111 10.6406 13.5601 10.7564C13.7096 10.8708 13.8349 11.0273 13.9361 11.226L13.9822 11.3164ZM13.5122 11.4402C13.4039 11.2277 13.2835 11.0856 13.1512 11.0139C13.0188 10.9422 12.882 10.9423 12.741 11.0142C12.6008 11.0856 12.5206 11.1955 12.5003 11.3438C12.4795 11.4911 12.5223 11.6704 12.6288 11.8816L12.6791 11.9804C12.7846 12.1874 12.9044 12.3286 13.0387 12.4039C13.173 12.4793 13.3116 12.4806 13.4545 12.4078C13.5947 12.3364 13.6744 12.2267 13.6938 12.0789C13.7127 11.9302 13.669 11.7502 13.5625 11.5391L13.5122 11.4402Z" fill="#00D615"/>
<path d="M15.3836 11.1881L15.0663 9.42958L15.5312 9.19266L15.8582 11.5793L15.4225 11.8014L13.6866 10.1326L14.1502 9.89634L15.3836 11.1881Z" fill="#00D615"/>
<path d="M17.6707 9.54929L16.8688 9.95788L17.1455 10.5008L18.0866 10.0213L18.2575 10.3568L16.8988 11.0492L15.8659 9.02213L17.2219 8.33121L17.3943 8.66951L16.456 9.14762L16.7021 9.63072L17.504 9.22212L17.6707 9.54929Z" fill="#00D615"/>
<path d="M18.6451 10.1593L17.6123 8.13231L18.236 7.81451C18.4142 7.72371 18.594 7.68299 18.7752 7.69232C18.957 7.70026 19.1251 7.75838 19.2797 7.86669C19.4338 7.97406 19.5588 8.12196 19.6548 8.31037L19.7023 8.40364C19.7983 8.59205 19.8447 8.77944 19.8415 8.96581C19.8392 9.15171 19.788 9.32097 19.6881 9.4736C19.5882 9.62623 19.4498 9.74817 19.273 9.83942L18.6451 10.1593ZM18.2023 8.2578L18.8918 9.61102L19.0937 9.50816C19.2571 9.42493 19.3547 9.30796 19.3866 9.15724C19.4186 9.00653 19.3849 8.83138 19.2855 8.63182L19.2309 8.52462C19.1259 8.31857 19.0038 8.1844 18.8645 8.1221C18.7247 8.05887 18.5727 8.06911 18.4084 8.15282L18.2023 8.2578Z" fill="#00D615"/>
<path fill-rule="evenodd" clip-rule="evenodd" d="M5.49606 17.8192C5.6437 17.9925 5.85006 18.1152 6.08707 18.1561L7.38663 18.3806C7.65632 18.4272 7.89513 18.5823 8.04738 18.8097L8.78105 19.9056C9.03789 20.2893 9.524 20.4472 9.95731 20.2878L11.195 19.8324C11.4519 19.7379 11.7362 19.7528 11.9818 19.8737L13.1651 20.4559C13.5794 20.6598 14.0793 20.5535 14.3749 20.1988L15.2191 19.1856C15.3943 18.9753 15.648 18.846 15.9211 18.8279L17.237 18.7405C17.6976 18.7099 18.0775 18.3679 18.1561 17.9129L18.3806 16.6133C18.4272 16.3436 18.5822 16.1048 18.8097 15.9526L19.9056 15.2189C20.2892 14.9621 20.4472 14.476 20.2878 14.0427L19.8324 12.805C19.7379 12.5481 19.7528 12.2637 19.8736 12.0182L20.4559 10.8349C20.5621 10.619 20.5841 10.38 20.5307 10.1587L5.49606 17.8192ZM18.7148 6.59462C18.6226 6.21214 18.311 5.91266 17.9128 5.84388L16.6133 5.61939C16.3436 5.5728 16.1048 5.41772 15.9525 5.19029L15.2189 4.09439C14.962 3.71073 14.4759 3.55278 14.0426 3.7122L12.8049 4.16756C12.5481 4.26206 12.2637 4.24716 12.0181 4.12633L10.8348 3.54409C10.4205 3.34025 9.92058 3.44652 9.62504 3.80123L8.78085 4.81444C8.60565 5.0247 8.35194 5.15398 8.07886 5.17212L6.76295 5.25954C6.30227 5.29014 5.92242 5.63216 5.84383 6.08712L5.61934 7.38668C5.57275 7.65637 5.41767 7.89518 5.19024 8.04743L4.09434 8.78109C3.71068 9.03794 3.55274 9.52405 3.71215 9.95735L4.16752 11.1951C4.26202 11.4519 4.24711 11.7363 4.12628 11.9818L3.54404 13.1652C3.36566 13.5277 3.42477 13.9558 3.68004 14.2552L18.7148 6.59462ZM5.71808 10.7941L6.59898 10.3221L6.41363 9.34L7.13475 10.0319L8.01146 9.55218L7.57624 10.4518L8.30343 11.1374L7.31332 11.0015L6.88604 11.9049L6.70934 10.9213L5.71808 10.7941ZM8.92616 6.87235L8.04526 7.34436L9.03652 7.47155L9.21322 8.4552L9.6405 7.55176L10.6306 7.68767L9.90342 7.00212L10.3386 6.10247L9.46193 6.58222L8.74081 5.8903L8.92616 6.87235ZM12.0184 7.58387L12.8993 7.11185L12.714 6.1298L13.4351 6.82173L14.3118 6.34198L13.8766 7.24162L14.6038 7.92718L13.6137 7.79126L13.1864 8.69471L13.0097 7.71106L12.0184 7.58387ZM17.5421 14.3213L18.423 13.8493L17.4317 13.7221L17.255 12.7384L16.8278 13.6419L15.8376 13.506L16.5648 14.1915L16.1296 15.0912L17.0063 14.6114L17.7275 15.3033L17.5421 14.3213ZM16.0958 17.299L15.2149 17.771L15.4003 18.753L14.6791 18.0611L13.8024 18.5409L14.2377 17.6412L13.5105 16.9557L14.5006 17.0916L14.9279 16.1881L15.1046 17.1718L16.0958 17.299ZM11.2417 17.5315L12.1226 17.0595L11.1314 16.9323L10.9547 15.9486L10.5274 16.8521L9.53728 16.7162L10.2645 17.4017L9.82925 18.3013L10.706 17.8216L11.4271 18.5135L11.2417 17.5315Z" fill="#00D615"/>
</svg>
