<svg width="24" height="25" viewBox="0 0 24 25" fill="none" xmlns="http://www.w3.org/2000/svg">
<path fill-rule="evenodd" clip-rule="evenodd" d="M4.63101 11.4895L2.04599 12.9112L12.046 18.4112L22.046 12.9112L19.461 11.4895L12.046 15.5677L4.63101 11.4895Z" fill="#EE2004"/>
<path fill-rule="evenodd" clip-rule="evenodd" d="M4.84091 15.922L2 17.4845L12 22.9845L22 17.4845L19.1591 15.922L12 19.8595L4.84091 15.922Z" fill="#00D615"/>
<path fill-rule="evenodd" clip-rule="evenodd" d="M14.1645 5.89074C14.1023 5.98327 14.1248 6.10873 14.2148 6.17097L14.7207 6.521C14.5657 6.86533 14.5721 7.28741 14.7593 7.65175C14.5727 7.93959 14.4449 8.26482 14.3816 8.6063L13.6881 8.72597L13.2804 7.93979C13.2296 7.84173 13.1098 7.8053 13.013 7.85841C12.9161 7.91152 12.8788 8.03406 12.9297 8.13212L13.4033 9.04537C13.4427 9.12136 13.5255 9.16273 13.6093 9.14828L14.3371 9.02269C14.3278 9.33005 14.3698 9.64337 14.4671 9.94846L13.4885 10.4851C13.3917 10.5382 13.3544 10.6607 13.4053 10.7588C13.4561 10.8568 13.5758 10.8933 13.6727 10.8402L14.6168 10.3225C14.6275 10.3446 14.6386 10.3666 14.65 10.3886C14.8065 10.6905 15.0097 10.9497 15.2447 11.1613L14.7237 11.7859C14.6707 11.8494 14.6608 11.9389 14.6985 12.0117L15.2492 13.0736C15.3001 13.1716 15.4198 13.2081 15.5166 13.155C15.6135 13.1018 15.6508 12.9793 15.5999 12.8812L15.1118 11.94L15.5589 11.404C16.3027 11.893 17.2564 11.9728 18.0696 11.5269C18.884 11.0803 19.351 10.2196 19.3693 9.31062L20.0603 9.22636L20.5484 10.1676C20.5993 10.2657 20.719 10.3021 20.8159 10.249C20.9127 10.1959 20.95 10.0733 20.8991 9.97527L20.3485 8.9134C20.3107 8.84059 20.2329 8.79923 20.1521 8.80908L19.3479 8.90715C19.3076 8.58989 19.2116 8.2733 19.0557 7.97263C19.0443 7.95066 19.0327 7.92892 19.0208 7.90741L19.8573 7.44871C19.9541 7.3956 19.9914 7.27306 19.9406 7.175C19.8897 7.07695 19.77 7.04051 19.6731 7.09362L18.8022 7.57123C18.61 7.3182 18.3805 7.10776 18.1271 6.94445L18.6343 6.3927C18.6926 6.32924 18.7053 6.23548 18.6659 6.15949L18.1923 5.24624C18.1415 5.14818 18.0217 5.11175 17.9249 5.16486C17.828 5.21797 17.7907 5.34051 17.8416 5.43857L18.2493 6.22474L17.7661 6.75046C17.4551 6.6142 17.1212 6.54216 16.7848 6.54112C16.5872 6.16352 16.23 5.91822 15.8487 5.87176L15.8479 5.27539C15.8478 5.16389 15.759 5.07477 15.6496 5.07635C15.5403 5.07792 15.4517 5.16959 15.4518 5.28109L15.4525 5.89698C15.3673 5.91886 15.2832 5.95178 15.2016 5.99648C15.106 6.04894 15.0214 6.11352 14.9483 6.18747L14.4401 5.83589C14.3501 5.77365 14.2267 5.79821 14.1645 5.89074ZM15.3858 6.35157C15.081 6.5187 14.9317 6.91031 15.043 7.29136C15.2128 7.11259 15.4112 6.9577 15.6361 6.83437C15.861 6.71103 16.0967 6.62791 16.3357 6.58255C16.09 6.27519 15.6906 6.18444 15.3858 6.35157Z" fill="#EE2004"/>
<path d="M18.8322 9.6271C18.7735 9.88484 18.5784 10.4688 18.2677 10.743" stroke="white" stroke-width="0.4" stroke-linecap="round" stroke-linejoin="round"/>
<path fill-rule="evenodd" clip-rule="evenodd" d="M4.94598 8.47411C5.41069 8.13774 6.00842 8.11857 6.48098 8.37524C5.85178 8.28102 5.19899 8.56457 4.85106 9.1439C4.39028 9.91116 4.63874 10.9067 5.406 11.3675C5.65904 11.5194 5.93691 11.5943 6.21223 11.5988C5.94125 11.1092 5.93151 10.4924 6.24032 9.97824C6.54914 9.46402 7.09814 9.18284 7.65765 9.19201C7.5243 8.95108 7.32768 8.74094 7.07463 8.58897C6.90733 8.4885 6.72919 8.42175 6.5481 8.38674C6.50728 8.19711 6.42731 8.01266 6.30627 7.84544C5.83925 7.20022 4.9376 7.05576 4.29237 7.52278C3.64715 7.9898 3.50269 8.89146 3.96971 9.53668C4.08268 9.69275 4.22108 9.81953 4.37513 9.91543C4.27271 9.38226 4.47716 8.81345 4.94598 8.47411ZM10.092 7.5605C10.0816 7.67017 10.1626 7.76817 10.2727 7.7794C10.6478 7.8176 10.8442 7.94067 10.9703 8.08506C10.2978 8.49803 9.9389 9.29145 10.1378 10.0757C10.1731 10.2148 10.2241 10.3462 10.2884 10.4686C10.1058 10.4165 9.91059 10.3971 9.71016 10.4162C8.8485 10.4986 8.21679 11.264 8.29919 12.1256C8.38159 12.9873 9.14691 13.619 10.0086 13.5366C10.2155 13.5168 10.4091 13.4576 10.5828 13.3672C9.98889 13.1904 9.53193 12.6685 9.46932 12.0137C9.40714 11.3636 9.75149 10.7683 10.2944 10.4798C10.6869 11.2129 11.5634 11.616 12.4333 11.4051C13.4523 11.1582 14.0766 10.1627 13.8277 9.18158C13.7056 8.70016 13.396 8.31165 12.9919 8.06995C13.0086 8.02028 13.0277 7.97296 13.0505 7.92773C13.1422 7.74596 13.308 7.5687 13.7014 7.44998C13.8074 7.41798 13.8682 7.30636 13.8371 7.20067C13.8061 7.09498 13.695 7.03524 13.5889 7.06725C13.1026 7.21401 12.8411 7.4579 12.6936 7.75032C12.6683 7.80043 12.6469 7.85099 12.6284 7.9013C12.2885 7.78477 11.9097 7.76064 11.5322 7.85212C11.4663 7.86809 11.402 7.88719 11.3395 7.90922C11.3329 7.90022 11.3262 7.89126 11.3193 7.88235C11.1188 7.62336 10.8156 7.43373 10.3103 7.38226C10.2001 7.37103 10.1023 7.45084 10.092 7.5605ZM11.8157 12.1806C12.4731 12.2976 13.1088 12.0087 13.4656 11.4934C13.5074 11.6531 13.5258 11.8218 13.5171 11.9954C13.4713 12.9073 12.695 13.6095 11.7831 13.5638C10.8711 13.5181 10.1689 12.7417 10.2147 11.8298C10.2307 11.5105 10.3362 11.217 10.5058 10.9723C10.6645 11.5763 11.1604 12.064 11.8157 12.1806ZM7.59513 11.143C7.74256 10.3209 8.4426 9.73703 9.24405 9.70525C9.02097 9.52219 8.74935 9.39195 8.44512 9.33739C7.4953 9.16705 6.58722 9.79895 6.41688 10.7488C6.24654 11.6986 6.87844 12.6067 7.82827 12.777C7.95603 12.7999 8.08304 12.8083 8.2076 12.8034C7.7342 12.4149 7.47935 11.7886 7.59513 11.143ZM11.8128 9.32355C11.8281 9.4829 11.7114 9.6245 11.552 9.63981C11.3927 9.65512 11.2511 9.53835 11.2358 9.379C11.2204 9.21964 11.3372 9.07805 11.4966 9.06274C11.6559 9.04742 11.7975 9.16419 11.8128 9.32355ZM12.5543 9.54351C12.7136 9.5282 12.8304 9.3866 12.8151 9.22725C12.7998 9.0679 12.6582 8.95113 12.4988 8.96644C12.3395 8.98175 12.2227 9.12334 12.238 9.2827C12.2533 9.44205 12.3949 9.55882 12.5543 9.54351Z" fill="#EE2004"/>
</svg>
