<svg width="24" height="24" viewBox="0 0 24 24" fill="none" xmlns="http://www.w3.org/2000/svg">
<circle cx="12" cy="8" r="5.5" stroke="#00D615"/>
<path d="M14.9352 7.46758C15.3758 7.68791 15.3778 8.31605 14.9386 8.53917L10.8717 10.605C10.4726 10.8078 10 10.5178 10 10.0701V5.97082C10 5.52479 10.4694 5.23469 10.8683 5.43416L14.9352 7.46758Z" fill="#00D615"/>
<path fill-rule="evenodd" clip-rule="evenodd" d="M20.107 7.6857C20.0306 6.52877 20.3286 6.20104 20.4872 6.18179C20.3605 6.11858 20.0726 5.99217 19.935 5.99217C19.763 5.99217 19.2089 6.18179 19.4 8.02823C19.5528 9.50538 19.0051 11.9547 18.7121 12.9947C20.2217 10.1785 20.2025 9.13187 20.107 7.6857ZM18.2554 18.7594C17.4813 20.737 17.486 20.9601 17.6872 22H16.0877H13.3266C13.3105 22 13.2956 21.9523 13.2737 21.882L13.2737 21.882L13.2737 21.882L13.2736 21.882C13.2491 21.8033 13.2157 21.6963 13.1619 21.5966C11.8475 19.1591 13.2294 17.2612 14.3966 15.6582C14.7436 15.1816 15.0717 14.731 15.3042 14.3001C16.2348 12.5757 17.2468 13.9167 16.8079 14.7005C16.5831 15.1018 15.9717 16.6324 15.8391 17.2804C20.5845 11.8471 20.5445 10.4317 20.4875 8.41083C20.4764 8.01866 20.4647 7.60369 20.4872 7.13212C20.5363 6.10113 21.3084 6.72633 21.5053 7.13212C22.2479 12.9615 20.69 15.0997 19.4093 16.8576C18.949 17.4895 18.5245 18.0721 18.2554 18.7594ZM19.1459 8.67757C19.0056 10.1534 18.5334 13.344 17.7665 14.3001C17.8046 13.3045 18.0291 11.2395 18.6217 10.9444H18.7121C18.6693 10.3873 18.64 9.19922 18.8648 8.90413C19.0897 8.60904 19.1459 8.63013 19.1459 8.67757ZM3.59074 7.68962C3.66718 6.53268 3.36912 6.20495 3.21053 6.1857C3.33727 6.1225 3.62514 5.99609 3.76272 5.99609C3.9347 5.99609 4.48885 6.1857 4.29777 8.03214C4.1449 9.50929 4.69268 11.9586 4.98568 12.9986C3.47609 10.1824 3.4952 9.13579 3.59074 7.68962ZM5.4423 18.7633C6.2164 20.7409 6.2117 20.964 6.0105 22.0039H7.61001H10.3712C10.3872 22.0039 10.4022 21.9562 10.4241 21.8859L10.4241 21.8859L10.4241 21.8859L10.4241 21.8859C10.4487 21.8072 10.4821 21.7002 10.5358 21.6005C11.8502 19.1631 10.4683 17.2651 9.30116 15.6621L9.30115 15.6621C8.95411 15.1855 8.62606 14.7349 8.39352 14.304C7.46296 12.5796 6.4509 13.9206 6.88985 14.7044C7.11461 15.1057 7.726 16.6363 7.85861 17.2844C3.11329 11.851 3.15324 10.4356 3.21028 8.41474C3.22135 8.02257 3.23306 7.6076 3.21057 7.13604C3.16139 6.10504 2.38933 6.73025 2.19239 7.13604C1.44989 12.9654 3.00774 15.1037 4.28844 16.8615C4.74876 17.4934 5.17328 18.0761 5.4423 18.7633ZM4.55186 8.68148C4.69212 10.1573 5.16437 13.3479 5.93125 14.304C5.89311 13.3084 5.66866 11.2434 5.07599 10.9483H4.98568C5.02844 10.3912 5.05775 9.20313 4.83291 8.90804C4.60807 8.61295 4.55186 8.63405 4.55186 8.68148Z" fill="#8D8D8D"/>
</svg>
