<svg width="25" height="25" viewBox="0 0 25 25" fill="none" xmlns="http://www.w3.org/2000/svg">
<rect x="3.5" y="3.63483" width="4" height="4" fill="#2492F2"/>
<rect x="3.5" y="8.63483" width="4" height="14" fill="#0D57C7"/>
<rect x="8.5" y="22.6348" width="4" height="14" transform="rotate(-90 8.5 22.6348)" fill="#0D57C7"/>
<path d="M8.57151 14.1348L10.1786 10.4719L17.5045 13.6861L15.8974 17.3491L8.57151 14.1348Z" fill="#2492F2"/>
<path d="M11.8431 6.8064L14.6716 3.97797L20.3284 9.63482L17.5 12.4633L11.8431 6.8064Z" fill="#2492F2"/>
<rect x="18.5" y="17.6348" width="4" height="4" transform="rotate(-90 18.5 17.6348)" fill="#2492F2"/>
<path d="M18.3787 5.51351L20.5 3.39219L22.6213 5.51351L20.5 7.63483L18.3787 5.51351Z" fill="#2492F2"/>
<path d="M8.50002 5.04904L9.91423 3.63483L11.3284 5.04904L9.91423 6.46326L8.50002 5.04904Z" fill="#2492F2"/>
</svg>
