<svg width="24" height="24" viewBox="0 0 24 24" fill="none" xmlns="http://www.w3.org/2000/svg">
<path fill-rule="evenodd" clip-rule="evenodd" d="M20.107 7.68572C20.0306 6.52878 20.3286 6.20105 20.4872 6.18181C20.3605 6.1186 20.0726 5.99219 19.935 5.99219C19.763 5.99219 19.2089 6.18181 19.4 8.02824C19.5528 9.50539 19.0051 11.9547 18.7121 12.9947C20.2217 10.1785 20.2025 9.13189 20.107 7.68572ZM18.2554 18.7594C17.4813 20.737 17.486 20.9601 17.6872 22H16.0877H13.3266C13.3105 22 13.2956 21.9523 13.2737 21.882L13.2737 21.882L13.2736 21.882L13.2736 21.882C13.2491 21.8033 13.2157 21.6963 13.1619 21.5966C11.8475 19.1592 13.2294 17.2612 14.3966 15.6582C14.7436 15.1816 15.0717 14.731 15.3042 14.3001C16.2348 12.5757 17.2468 13.9167 16.8079 14.7005C16.5831 15.1018 15.9717 16.6324 15.8391 17.2805C20.5845 11.8471 20.5445 10.4317 20.4875 8.41084C20.4764 8.01867 20.4647 7.6037 20.4872 7.13214C20.5363 6.10114 21.3084 6.72635 21.5053 7.13214C22.2479 12.9615 20.69 15.0998 19.4093 16.8576C18.949 17.4895 18.5245 18.0722 18.2554 18.7594ZM19.1459 8.67758C19.0056 10.1534 18.5334 13.344 17.7665 14.3001C17.8046 13.3045 18.0291 11.2395 18.6217 10.9444H18.7121C18.6693 10.3873 18.64 9.19923 18.8648 8.90414C19.0897 8.60905 19.1459 8.63015 19.1459 8.67758ZM3.59074 7.68963C3.66718 6.5327 3.36912 6.20497 3.21053 6.18572C3.33727 6.12251 3.62514 5.9961 3.76272 5.9961C3.9347 5.9961 4.48885 6.18572 4.29777 8.03216C4.1449 9.50931 4.69268 11.9586 4.98568 12.9986C3.47609 10.1824 3.4952 9.1358 3.59074 7.68963ZM5.4423 18.7633C6.2164 20.741 6.2117 20.964 6.0105 22.0039H7.61001H10.3712C10.3872 22.0039 10.4022 21.9562 10.4241 21.8859L10.4241 21.8859L10.4241 21.8859L10.4241 21.8859C10.4487 21.8072 10.4821 21.7002 10.5358 21.6006C11.8502 19.1631 10.4683 17.2651 9.30116 15.6621L9.30115 15.6621C8.95411 15.1855 8.62606 14.7349 8.39352 14.304C7.46296 12.5796 6.4509 13.9206 6.88985 14.7044C7.11461 15.1057 7.726 16.6363 7.85861 17.2844C3.11329 11.851 3.15324 10.4356 3.21028 8.41476C3.22135 8.02259 3.23306 7.60761 3.21057 7.13605C3.16139 6.10506 2.38932 6.73026 2.19239 7.13605C1.44989 12.9654 3.00774 15.1037 4.28844 16.8615C4.74876 17.4934 5.17328 18.0761 5.4423 18.7633ZM4.55186 8.6815C4.69212 10.1573 5.16437 13.3479 5.93125 14.304C5.89311 13.3084 5.66866 11.2434 5.07599 10.9483H4.98568C5.02844 10.3912 5.05775 9.20315 4.83291 8.90806C4.60807 8.61297 4.55186 8.63406 4.55186 8.6815Z" fill="#C4C4C4"/>
<path fill-rule="evenodd" clip-rule="evenodd" d="M12.046 12.9961C14.7231 12.9961 16.9089 10.892 17.0398 8.24733C17.028 8.2508 17.0156 8.25411 17.0026 8.2572C16.9554 8.26834 16.9216 8.28121 16.8941 8.29165C16.7853 8.33302 16.7766 8.33635 16.4366 8.04393C15.9581 7.63236 16.0005 6.89398 16.0248 6.47143C16.0323 6.34172 16.038 6.24178 16.0265 6.19018C15.9829 5.9956 15.9972 5.89548 16.0181 5.74911V5.74911L16.0265 5.68983C16.0445 5.55657 16.0803 5.50401 16.1306 5.43021C16.1487 5.40355 16.1687 5.37412 16.1905 5.33712C16.2093 5.30519 16.2221 5.2797 16.2318 5.26025C16.1198 5.08934 15.9977 4.92571 15.8663 4.77021C15.8694 4.81233 15.881 4.86481 15.8926 4.91735L15.8926 4.91738L15.8926 4.91739C15.8996 4.94864 15.9065 4.9799 15.9116 5.00902C15.9362 5.14846 15.682 5.15667 15.5835 5.12386C15.5223 5.10344 15.5373 5.05761 15.5573 4.99626C15.5695 4.95902 15.5835 4.91605 15.5835 4.86958C15.5835 4.80849 15.5593 4.78986 15.5157 4.75647C15.4716 4.72261 15.4077 4.67357 15.3293 4.54968C15.2523 4.42822 15.2074 4.30009 15.1688 4.18999L15.1687 4.18998C15.1506 4.13817 15.1338 4.09036 15.1158 4.04911C14.9827 3.94545 14.8442 3.84838 14.7008 3.75837C14.6171 3.71845 14.5403 3.6776 14.4979 3.63754C14.0124 3.36387 13.4767 3.16896 12.908 3.07013C12.9873 3.16698 13.0791 3.25547 13.1759 3.30657C13.3715 3.40979 13.3504 3.60847 13.3311 3.79096C13.3219 3.87852 13.313 3.96236 13.3286 4.03014C13.3769 4.23917 13.2563 4.56075 12.8061 4.12661C12.3558 3.69247 11.978 4.15073 12.2513 4.3678C12.5247 4.58487 12.9829 5.01097 12.9508 5.25216C12.9269 5.43093 12.4482 5.64944 12.1692 5.77676L12.1692 5.77677C12.0718 5.82123 11.9988 5.85457 11.978 5.87121C11.9485 5.8948 11.8996 5.96054 11.8411 6.0391C11.7401 6.1748 11.6106 6.34877 11.5036 6.40987C11.3348 6.50634 11.2571 6.57839 11.0956 6.86912C10.9664 7.10169 10.8551 7.05934 10.8156 7.00909C10.76 6.95167 10.5389 6.82605 10.0996 6.78298C9.55044 6.72914 9.3557 7.85434 9.87885 7.76281C10.2699 7.69441 10.2957 7.85758 10.3154 7.98259C10.3221 8.02484 10.3281 8.06272 10.3472 8.08584C10.7295 8.33349 10.9556 8.7588 10.9771 8.83417C10.9987 8.90955 10.9619 8.95502 10.777 8.95502C10.6489 8.95502 10.502 8.73553 10.3917 8.5707C10.3428 8.49766 10.3011 8.43535 10.2714 8.40763C10.1746 8.31735 9.91671 8.15614 9.3557 7.96269C9.01763 7.84611 8.99102 7.6546 8.94988 7.35852C8.92275 7.16328 8.8893 6.92256 8.75605 6.62787C8.46048 5.97421 8.54066 5.68629 8.59032 5.50798L8.59032 5.50798C8.597 5.484 8.60312 5.462 8.60771 5.44137C8.62337 5.37092 8.70342 5.29941 8.79662 5.21618C8.93374 5.0937 9.09932 4.94581 9.13003 4.73849C9.15344 4.58051 9.21545 4.44681 9.2711 4.32684C9.33812 4.18237 9.39589 4.05781 9.36587 3.93478C9.3555 3.8923 9.33715 3.84942 9.314 3.80776C7.94834 4.70037 7.04596 6.24285 7.04596 7.99609C7.04596 10.7575 9.28454 12.9961 12.046 12.9961ZM12.046 13.9961C15.3597 13.9961 18.046 11.3098 18.046 7.99609C18.046 4.68239 15.3597 1.99609 12.046 1.99609C8.73225 1.99609 6.04596 4.68239 6.04596 7.99609C6.04596 11.3098 8.73225 13.9961 12.046 13.9961ZM11.7849 7.98224C12.1152 7.93845 12.8954 7.96551 13.373 8.42403C13.8685 8.89975 14.3558 9.02175 14.712 9.11093C14.7849 9.1292 14.8524 9.14609 14.9133 9.16436C15.2715 9.27183 15.4984 9.47482 15.0446 10.036C14.9105 10.2085 14.8917 10.333 14.8756 10.4394C14.8516 10.5982 14.8337 10.717 14.4476 10.8958C14.1057 11.0541 14.0257 11.1889 13.9511 11.3144C13.8851 11.4256 13.8234 11.5295 13.5879 11.6361C13.3199 11.7573 13.0315 11.974 12.7736 12.1677C12.5489 12.3366 12.3473 12.488 12.2028 12.5436C11.8923 12.663 11.4744 12.7227 11.6296 12.4122C11.6564 12.3587 11.6962 12.2886 11.7424 12.2073C11.964 11.8173 12.3305 11.1725 12.0834 10.8958C12.0577 10.867 12.0256 10.8325 11.9886 10.7928C11.595 10.3702 10.6561 9.36205 11.2237 8.54345C11.4654 8.13246 11.6985 7.99806 11.7849 7.98224Z" fill="#C4C4C4"/>
</svg>
