<svg width="24" height="24" viewBox="0 0 24 24" fill="none" xmlns="http://www.w3.org/2000/svg">
<path fill-rule="evenodd" clip-rule="evenodd" d="M20.107 7.6857C20.0306 6.52877 20.3286 6.20104 20.4872 6.18179C20.3605 6.11858 20.0726 5.99217 19.935 5.99217C19.763 5.99217 19.2089 6.18179 19.4 8.02823C19.5528 9.50538 19.0051 11.9547 18.7121 12.9947C20.2217 10.1785 20.2025 9.13187 20.107 7.6857ZM18.2554 18.7594C17.4813 20.737 17.486 20.9601 17.6872 22H16.0877H13.3266C13.3105 22 13.2956 21.9523 13.2737 21.882L13.2737 21.882L13.2737 21.882L13.2736 21.882C13.2491 21.8033 13.2157 21.6963 13.1619 21.5966C11.8475 19.1591 13.2294 17.2612 14.3966 15.6582C14.7436 15.1816 15.0717 14.731 15.3042 14.3001C16.2348 12.5757 17.2468 13.9167 16.8079 14.7005C16.5831 15.1018 15.9717 16.6324 15.8391 17.2804C20.5845 11.8471 20.5445 10.4317 20.4875 8.41083C20.4764 8.01866 20.4647 7.60369 20.4872 7.13212C20.5363 6.10113 21.3084 6.72633 21.5053 7.13212C22.2479 12.9615 20.69 15.0997 19.4093 16.8576C18.949 17.4895 18.5245 18.0721 18.2554 18.7594ZM19.1459 8.67757C19.0056 10.1534 18.5334 13.344 17.7665 14.3001C17.8046 13.3045 18.0291 11.2395 18.6217 10.9444H18.7121C18.6693 10.3873 18.64 9.19922 18.8648 8.90413C19.0897 8.60904 19.1459 8.63013 19.1459 8.67757ZM3.59074 7.68962C3.66718 6.53268 3.36912 6.20495 3.21053 6.1857C3.33727 6.1225 3.62514 5.99609 3.76272 5.99609C3.9347 5.99609 4.48885 6.1857 4.29777 8.03214C4.1449 9.50929 4.69268 11.9586 4.98568 12.9986C3.47609 10.1824 3.4952 9.13579 3.59074 7.68962ZM5.4423 18.7633C6.2164 20.7409 6.2117 20.964 6.0105 22.0039H7.61001H10.3712C10.3872 22.0039 10.4022 21.9562 10.4241 21.8859L10.4241 21.8859L10.4241 21.8859L10.4241 21.8859C10.4487 21.8072 10.4821 21.7002 10.5358 21.6005C11.8502 19.1631 10.4683 17.2651 9.30116 15.6621L9.30115 15.6621C8.95411 15.1855 8.62606 14.7349 8.39352 14.304C7.46296 12.5796 6.4509 13.9206 6.88985 14.7044C7.11461 15.1057 7.726 16.6363 7.85861 17.2844C3.11329 11.851 3.15324 10.4356 3.21028 8.41474C3.22135 8.02257 3.23306 7.6076 3.21057 7.13604C3.16139 6.10504 2.38933 6.73025 2.19239 7.13604C1.44989 12.9654 3.00774 15.1037 4.28844 16.8615C4.74876 17.4934 5.17328 18.0761 5.4423 18.7633ZM4.55186 8.68148C4.69212 10.1573 5.16437 13.3479 5.93125 14.304C5.89311 13.3084 5.66866 11.2434 5.07599 10.9483H4.98568C5.02844 10.3912 5.05775 9.20313 4.83291 8.90804C4.60807 8.61295 4.55186 8.63405 4.55186 8.68148Z" fill="#8D8D8D"/>
<path fill-rule="evenodd" clip-rule="evenodd" d="M12.046 12.9961C14.7232 12.9961 16.9089 10.892 17.0398 8.24732C17.028 8.25079 17.0156 8.2541 17.0026 8.25719C16.9554 8.26833 16.9216 8.2812 16.8941 8.29164C16.7853 8.33301 16.7766 8.33634 16.4366 8.04392C15.9581 7.63235 16.0006 6.89397 16.0248 6.47143C16.0323 6.34172 16.038 6.24177 16.0265 6.19017C15.9829 5.99559 15.9972 5.89547 16.0182 5.74911V5.7491L16.0265 5.68982C16.0446 5.55657 16.0803 5.504 16.1306 5.4302C16.1487 5.40355 16.1688 5.37412 16.1905 5.33711C16.2093 5.30518 16.2221 5.2797 16.2318 5.26024C16.1199 5.08934 15.9977 4.9257 15.8663 4.77021C15.8694 4.81233 15.881 4.8648 15.8927 4.91734L15.8927 4.91737L15.8927 4.91739C15.8996 4.94863 15.9065 4.9799 15.9117 5.00901C15.9363 5.14846 15.682 5.15666 15.5836 5.12385C15.5223 5.10343 15.5373 5.0576 15.5573 4.99625C15.5695 4.95901 15.5836 4.91605 15.5836 4.86957C15.5836 4.80848 15.5593 4.78986 15.5158 4.75646C15.4716 4.7226 15.4077 4.67356 15.3293 4.54968C15.2524 4.42822 15.2074 4.30008 15.1688 4.18998L15.1688 4.18997C15.1506 4.13816 15.1338 4.09035 15.1158 4.04911C14.9827 3.94545 14.8442 3.84837 14.7009 3.75837C14.6172 3.71844 14.5404 3.67759 14.4979 3.63753C14.0125 3.36387 13.4767 3.16895 12.908 3.07012C12.9873 3.16697 13.0791 3.25546 13.1759 3.30656C13.3715 3.40979 13.3505 3.60846 13.3312 3.79095C13.3219 3.87852 13.313 3.96235 13.3287 4.03013C13.3769 4.23916 13.2563 4.56075 12.8061 4.12661C12.3559 3.69246 11.978 4.15072 12.2513 4.36779C12.5247 4.58486 12.983 5.01097 12.9508 5.25215C12.927 5.43092 12.4482 5.64943 12.1693 5.77676L12.1693 5.77676C12.0719 5.82122 11.9988 5.85456 11.978 5.87121C11.9485 5.89479 11.8996 5.96053 11.8411 6.03909C11.7401 6.17479 11.6106 6.34876 11.5037 6.40986C11.3348 6.50634 11.2571 6.57839 11.0956 6.86911C10.9664 7.10168 10.8551 7.05933 10.8156 7.00908C10.76 6.95166 10.5389 6.82604 10.0996 6.78297C9.55047 6.72913 9.35573 7.85433 9.87888 7.76281C10.2699 7.6944 10.2957 7.85758 10.3154 7.98258C10.3221 8.02483 10.3281 8.06271 10.3473 8.08583C10.7295 8.33348 10.9556 8.7588 10.9772 8.83417C10.9987 8.90954 10.9619 8.95501 10.777 8.95501C10.6489 8.95501 10.502 8.73552 10.3917 8.57069C10.3428 8.49765 10.3011 8.43534 10.2714 8.40762C10.1747 8.31735 9.91674 8.15614 9.35573 7.96268C9.01766 7.84611 8.99105 7.6546 8.94991 7.35852C8.92278 7.16327 8.88933 6.92255 8.75608 6.62786C8.46051 5.9742 8.54069 5.68629 8.59035 5.50797L8.59035 5.50797C8.59703 5.48399 8.60316 5.462 8.60774 5.44136C8.6234 5.37091 8.70345 5.29941 8.79665 5.21617C8.93377 5.09369 9.09935 4.9458 9.13006 4.73848C9.15347 4.58051 9.21549 4.4468 9.27113 4.32683C9.33815 4.18236 9.39592 4.05781 9.3659 3.93477C9.35553 3.89229 9.33718 3.84941 9.31403 3.80775C7.94837 4.70036 7.04599 6.24284 7.04599 7.99609C7.04599 10.7575 9.28457 12.9961 12.046 12.9961ZM12.046 13.9961C15.3597 13.9961 18.046 11.3098 18.046 7.99609C18.046 4.68238 15.3597 1.99609 12.046 1.99609C8.73228 1.99609 6.04599 4.68238 6.04599 7.99609C6.04599 11.3098 8.73228 13.9961 12.046 13.9961ZM11.7849 7.98223C12.1153 7.93844 12.8954 7.9655 13.373 8.42402C13.8685 8.89974 14.3558 9.02175 14.712 9.11093C14.785 9.12919 14.8524 9.14608 14.9133 9.16435C15.2716 9.27182 15.4984 9.47481 15.0447 10.036C14.9105 10.2085 14.8917 10.3329 14.8756 10.4394C14.8516 10.5982 14.8337 10.717 14.4476 10.8957C14.1057 11.0541 14.0257 11.1888 13.9512 11.3144C13.8852 11.4256 13.8235 11.5295 13.5879 11.6361C13.3199 11.7573 13.0315 11.974 12.7736 12.1677C12.5489 12.3366 12.3474 12.488 12.2028 12.5436C11.8923 12.663 11.4744 12.7227 11.6297 12.4122C11.6564 12.3587 11.6963 12.2885 11.7424 12.2073C11.9641 11.8173 12.3305 11.1725 12.0834 10.8957C12.0578 10.867 12.0256 10.8325 11.9886 10.7928C11.5951 10.3702 10.6561 9.36204 11.2237 8.54344C11.4654 8.13245 11.6985 7.99805 11.7849 7.98223Z" fill="#E5B105"/>
</svg>
