<svg width="25" height="25" viewBox="0 0 25 25" fill="none" xmlns="http://www.w3.org/2000/svg">
<path fill-rule="evenodd" clip-rule="evenodd" d="M21.5 12.6348C21.5 17.6054 17.4706 21.6348 12.5 21.6348C7.52944 21.6348 3.5 17.6054 3.5 12.6348C3.5 7.66426 7.52944 3.63483 12.5 3.63483C17.4706 3.63483 21.5 7.66426 21.5 12.6348ZM13 5.63483V11.6348H17.5V12.6348H13H12.5H12V5.63483H13Z" fill="#0D57C7"/>
<path d="M18.8669 3.40367C18.8669 3.40367 20.915 3.71259 21.6953 6.2321L20.6676 7.25982L17.8391 4.43139L18.8669 3.40367Z" fill="#0D57C7"/>
<path d="M18.7071 4.92773L20.1213 6.34193L19.4142 7.04904L18 5.63483L18.7071 4.92773Z" fill="#0D57C7"/>
</svg>
