<svg width="24" height="24" viewBox="0 0 24 24" fill="none" xmlns="http://www.w3.org/2000/svg">
<g clip-path="url(#clip0)">
<path d="M5.42554 16.4465L5.08619 16.6194L3.87344 15.8724L4.42559 16.956L4.08624 17.1289L3.24707 15.4819L3.58642 15.309L4.80145 16.0578L4.24815 14.9719L4.58636 14.7995L5.42554 16.4465Z" fill="#EE2004"/>
<path d="M6.6742 14.82C6.75681 14.9822 6.80059 15.1389 6.80552 15.2903C6.81045 15.4416 6.77629 15.5778 6.70302 15.6987C6.6305 15.8192 6.52524 15.9147 6.38724 15.985C6.25075 16.0545 6.11224 16.0838 5.97173 16.0727C5.83122 16.0617 5.70062 16.0105 5.57994 15.919C5.45887 15.8268 5.35762 15.7017 5.27617 15.5438L5.23468 15.4623C5.15207 15.3002 5.10848 15.1429 5.10391 14.9904C5.09972 14.8367 5.13407 14.7 5.20697 14.5802C5.28024 14.4593 5.3855 14.3639 5.52275 14.2939C5.66 14.224 5.79869 14.1951 5.93883 14.2073C6.07935 14.2184 6.21014 14.2709 6.33122 14.365C6.45267 14.458 6.55451 14.5851 6.63674 14.7465L6.6742 14.82ZM6.29229 14.9206C6.2043 14.7479 6.10652 14.6324 5.99896 14.5742C5.8914 14.516 5.78031 14.5161 5.66569 14.5745C5.55182 14.6325 5.48663 14.7217 5.47014 14.8422C5.45325 14.962 5.48805 15.1076 5.57452 15.2792L5.61544 15.3595C5.70112 15.5277 5.79851 15.6424 5.90761 15.7036C6.01671 15.7649 6.12932 15.7659 6.24546 15.7067C6.35933 15.6487 6.42413 15.5596 6.43988 15.4395C6.45523 15.3187 6.41968 15.1725 6.33321 15.0009L6.29229 14.9206Z" fill="#EE2004"/>
<path d="M7.76472 13.5263L7.26022 13.7834L7.95934 15.1555L7.61999 15.3284L6.92087 13.9563L6.42316 14.2099L6.28311 13.935L7.62466 13.2514L7.76472 13.5263Z" fill="#EE2004"/>
<path d="M9.92432 13.7268L9.32933 14.03L9.38912 14.427L9.02828 14.6108L8.8022 12.6515L9.11666 12.4912L10.5723 13.8241L10.2115 14.0079L9.92432 13.7268ZM9.2809 13.7084L9.69265 13.4986L9.17153 12.9876L9.2809 13.7084Z" fill="#EE2004"/>
<path d="M10.7698 12.9925L11.0655 13.5728L10.7262 13.7457L9.88698 12.0987L10.5295 11.7714C10.6532 11.7084 10.7733 11.6756 10.8898 11.6732C11.0072 11.6705 11.1124 11.6981 11.2056 11.756C11.2984 11.8132 11.3719 11.895 11.426 12.0013C11.5083 12.1627 11.5178 12.3184 11.4546 12.4684C11.3917 12.6172 11.2626 12.7414 11.0673 12.8409L10.7698 12.9925ZM10.6298 12.7176L10.9329 12.5632C11.0227 12.5175 11.0802 12.4616 11.1054 12.3955C11.1314 12.3291 11.1244 12.2566 11.0844 12.1782C11.0433 12.0975 10.9863 12.0444 10.9135 12.0188C10.8406 11.9933 10.7619 12.0011 10.6775 12.0422L10.3664 12.2007L10.6298 12.7176Z" fill="#EE2004"/>
<path d="M12.2652 12.2306L12.5609 12.8109L12.2215 12.9838L11.3824 11.3368L12.0249 11.0094C12.1486 10.9464 12.2687 10.9137 12.3852 10.9113C12.5025 10.9085 12.6078 10.9361 12.701 10.9941C12.7938 11.0513 12.8672 11.133 12.9214 11.2394C13.0037 11.4008 13.0132 11.5564 12.95 11.7064C12.8871 11.8553 12.758 11.9795 12.5627 12.079L12.2652 12.2306ZM12.1252 11.9557L12.4283 11.8012C12.5181 11.7555 12.5756 11.6996 12.6008 11.6336C12.6268 11.5671 12.6198 11.4947 12.5798 11.4163C12.5387 11.3356 12.4817 11.2825 12.4089 11.2569C12.336 11.2313 12.2573 11.2391 12.1728 11.2803L11.8618 11.4388L12.1252 11.9557Z" fill="#EE2004"/>
<path d="M14.0194 11.3083L13.7491 11.446L14.0563 12.0489L13.7169 12.2218L12.8778 10.5749L13.4897 10.263C13.6843 10.1639 13.8564 10.1308 14.0062 10.1637C14.156 10.1967 14.2712 10.2923 14.3519 10.4507C14.4091 10.563 14.4325 10.6694 14.4219 10.7698C14.4117 10.869 14.3685 10.9661 14.2924 11.0609L14.9916 11.5524L14.9997 11.5682L14.6354 11.7538L14.0194 11.3083ZM13.609 11.1711L13.8828 11.0317C13.968 10.9882 14.023 10.9331 14.0479 10.8663C14.0724 10.7988 14.0652 10.7269 14.0264 10.6507C13.9868 10.5731 13.9334 10.5233 13.8663 10.5015C13.7999 10.4793 13.721 10.4914 13.6298 10.5379L13.3572 10.6768L13.609 11.1711Z" fill="#EE2004"/>
<path d="M16.1488 9.99247C16.2314 10.1546 16.2752 10.3114 16.2801 10.4627C16.2851 10.6141 16.2509 10.7502 16.1776 10.8712C16.1051 10.9917 15.9998 11.0871 15.8618 11.1574C15.7253 11.227 15.5868 11.2562 15.4463 11.2452C15.3058 11.2341 15.1752 11.1829 15.0545 11.0915C14.9335 10.9993 14.8322 10.8742 14.7508 10.7162L14.7093 10.6348C14.6267 10.4726 14.5831 10.3153 14.5785 10.1628C14.5743 10.0092 14.6087 9.87244 14.6816 9.75266C14.7548 9.63173 14.8601 9.53631 14.9974 9.46638C15.1346 9.39644 15.2733 9.36757 15.4134 9.37976C15.5539 9.3908 15.6847 9.44337 15.8058 9.53745C15.9273 9.6304 16.0291 9.75757 16.1113 9.91895L16.1488 9.99247ZM15.7669 10.093C15.6789 9.92034 15.5811 9.80488 15.4736 9.74664C15.366 9.68841 15.2549 9.6885 15.1403 9.7469C15.0264 9.80492 14.9612 9.89418 14.9447 10.0147C14.9279 10.1344 14.9626 10.2801 15.0491 10.4516L15.09 10.5319C15.1757 10.7001 15.2731 10.8148 15.3822 10.8761C15.4913 10.9373 15.6039 10.9383 15.7201 10.8792C15.8339 10.8212 15.8987 10.7321 15.9145 10.612C15.9298 10.4911 15.8943 10.3449 15.8078 10.1733L15.7669 10.093Z" fill="#EE2004"/>
<path d="M17.1716 9.94724L16.9138 8.51842L17.2916 8.32591L17.5572 10.2651L17.2032 10.4455L15.7928 9.08959L16.1694 8.89766L17.1716 9.94724Z" fill="#EE2004"/>
<path d="M18.9141 8.6747L18.2625 9.00668L18.4873 9.44783L19.2519 9.05822L19.3908 9.33083L18.2868 9.89335L17.4477 8.24638L18.5494 7.68501L18.6895 7.95988L17.9271 8.34834L18.1271 8.74086L18.7786 8.40888L18.9141 8.6747Z" fill="#EE2004"/>
<path d="M19.5899 9.22939L18.7508 7.58242L19.2575 7.32421C19.4023 7.25044 19.5483 7.21734 19.6956 7.22493C19.8433 7.23138 19.9799 7.2786 20.1055 7.3666C20.2307 7.45384 20.3323 7.57401 20.4103 7.72709L20.4489 7.80288C20.5269 7.95596 20.5646 8.10822 20.562 8.25964C20.5601 8.41068 20.5185 8.54821 20.4374 8.67222C20.3562 8.79623 20.2437 8.89531 20.1001 8.96945L19.5899 9.22939ZM19.2302 7.68438L19.7904 8.78387L19.9544 8.7003C20.0871 8.63267 20.1665 8.53763 20.1924 8.41518C20.2183 8.29272 20.191 8.15042 20.1102 7.98827L20.0659 7.90117C19.9806 7.73376 19.8813 7.62474 19.7681 7.57413C19.6546 7.52275 19.531 7.53107 19.3976 7.59908L19.2302 7.68438Z" fill="#EE2004"/>
<path fill-rule="evenodd" clip-rule="evenodd" d="M5.49612 17.8192C5.64376 17.9925 5.85012 18.1152 6.08713 18.1561L7.38669 18.3806C7.65638 18.4272 7.89519 18.5823 8.04745 18.8097L8.78111 19.9056C9.03795 20.2893 9.52407 20.4472 9.95737 20.2878L11.1951 19.8324C11.4519 19.7379 11.7363 19.7528 11.9818 19.8737L13.1652 20.4559C13.5794 20.6598 14.0794 20.5535 14.3749 20.1988L15.2191 19.1856C15.3943 18.9753 15.648 18.846 15.9211 18.8279L17.237 18.7405C17.6977 18.7099 18.0776 18.3678 18.1561 17.9129L18.3806 16.6133C18.4272 16.3436 18.5823 16.1048 18.8097 15.9526L19.9056 15.2189C20.2893 14.9621 20.4472 14.476 20.2878 14.0426L19.8325 12.805C19.738 12.5481 19.7529 12.2637 19.8737 12.0182L20.4559 10.8349C20.5621 10.619 20.5842 10.38 20.5307 10.1587L5.49612 17.8192ZM18.7148 6.59462C18.6227 6.21214 18.3111 5.91265 17.9129 5.84388L16.6133 5.61938C16.3437 5.5728 16.1048 5.41771 15.9526 5.19029L15.2189 4.09439C14.9621 3.71073 14.476 3.55278 14.0427 3.7122L12.805 4.16756C12.5481 4.26206 12.2638 4.24716 12.0182 4.12633L10.8349 3.54408C10.4206 3.34025 9.92064 3.44652 9.6251 3.80123L8.78091 4.81443C8.60572 5.0247 8.352 5.15397 8.07892 5.17211L6.76301 5.25953C6.30233 5.29014 5.92249 5.63215 5.84389 6.08711L5.6194 7.38667C5.57281 7.65636 5.41773 7.89517 5.1903 8.04743L4.09441 8.78109C3.71074 9.03793 3.5528 9.52405 3.71221 9.95735L4.16758 11.195C4.26208 11.4519 4.24718 11.7363 4.12635 11.9818L3.5441 13.1651C3.36572 13.5277 3.42483 13.9558 3.6801 14.2552L18.7148 6.59462ZM5.71814 10.7941L6.59904 10.322L6.41369 9.34L7.13481 10.0319L8.01152 9.55217L7.5763 10.4518L8.30349 11.1374L7.31338 11.0015L6.8861 11.9049L6.7094 10.9213L5.71814 10.7941ZM8.92622 6.87235L8.04532 7.34436L9.03658 7.47155L9.21328 8.4552L9.64056 7.55175L10.6307 7.68767L9.90348 7.00212L10.3387 6.10247L9.46199 6.58222L8.74087 5.89029L8.92622 6.87235ZM12.0185 7.58386L12.8994 7.11185L12.7141 6.1298L13.4352 6.82172L14.3119 6.34197L13.8767 7.24162L14.6039 7.92717L13.6138 7.79126L13.1865 8.6947L13.0098 7.71106L12.0185 7.58386ZM17.5422 14.3213L18.4231 13.8493L17.4318 13.7221L17.2551 12.7384L16.8278 13.6419L15.8377 13.506L16.5649 14.1915L16.1297 15.0911L17.0064 14.6114L17.7275 15.3033L17.5422 14.3213ZM16.0959 17.299L15.215 17.771L15.4003 18.753L14.6792 18.0611L13.8025 18.5408L14.2377 17.6412L13.5105 16.9557L14.5006 17.0916L14.9279 16.1881L15.1046 17.1718L16.0959 17.299ZM11.2418 17.5315L12.1227 17.0595L11.1314 16.9323L10.9547 15.9486L10.5274 16.8521L9.53734 16.7161L10.2645 17.4017L9.82931 18.3013L10.706 17.8216L11.4271 18.5135L11.2418 17.5315Z" fill="#EE2004"/>
</g>
<defs>
<clipPath id="clip0">
<rect width="24" height="24" fill="white"/>
</clipPath>
</defs>
</svg>
