<svg width="24" height="24" viewBox="0 0 24 24" fill="none" xmlns="http://www.w3.org/2000/svg">
<path fill-rule="evenodd" clip-rule="evenodd" d="M13 6C13 8.20914 11.2091 10 9 10C6.79086 10 5 8.20914 5 6C5 3.79086 6.79086 2 9 2C11.2091 2 13 3.79086 13 6ZM9 11.634L7.5 12.5V10.768L9 11.634ZM9 11.634L10.5 10.768V12.5L9 11.634ZM16.4699 11H13.5C13.2239 11 13 10.7761 13 10.5C13 10.2239 13.2239 10 13.5 10H14.5C14.2239 10 14 9.77614 14 9.5C14 9.22386 14.2239 9 14.5 9H20.5C20.7761 9 21 9.22386 21 9.5C21 9.77614 20.7761 10 20.5 10H21.5C21.7761 10 22 10.2239 22 10.5C22 10.7761 21.7761 11 21.5 11H18.7061C18.9867 11.3139 19.1341 11.7434 19.0755 12.1936C18.7906 14.3821 17.8097 16.3329 16.0555 17.013C15.1862 17.35 14.3438 17.3079 13.5775 17H13.8235V13.4187C14.5012 14.3993 14.9436 14.2265 14.9705 14.216L14.971 14.2158C15.2061 14.1247 15.8722 13.5613 16.1006 11.8064C16.1412 11.4946 16.2748 11.2177 16.4699 11ZM6.31905 11.5318L9 16L11.6809 11.5318C12.1483 11.7257 12.5902 11.9688 13 12.2547V22H5V12.2547C5.40982 11.9688 5.85166 11.7257 6.31905 11.5318ZM4 13.101V22L2 22V18C2 16.0927 2.76281 14.3636 4 13.101ZM9.5 17.5C9.5 17.7761 9.27614 18 9 18C8.72386 18 8.5 17.7761 8.5 17.5C8.5 17.2239 8.72386 17 9 17C9.27614 17 9.5 17.2239 9.5 17.5ZM9.5 19.5C9.5 19.7761 9.27614 20 9 20C8.72386 20 8.5 19.7761 8.5 19.5C8.5 19.2239 8.72386 19 9 19C9.27614 19 9.5 19.2239 9.5 19.5Z" fill="#FF701D"/>
</svg>
