<svg width="25" height="25" viewBox="0 0 25 25" fill="none" xmlns="http://www.w3.org/2000/svg">
<path fill-rule="evenodd" clip-rule="evenodd" d="M13.5 6.9845C13.5 9.19364 11.7091 10.9845 9.5 10.9845C7.29086 10.9845 5.5 9.19364 5.5 6.9845C5.5 4.77536 7.29086 2.9845 9.5 2.9845C11.7091 2.9845 13.5 4.77536 13.5 6.9845ZM9.5 12.6185L8 13.4845V11.7524L9.5 12.6185ZM9.5 12.6185L11 11.7524V13.4845L9.5 12.6185ZM16.9699 11.9845H14C13.7239 11.9845 13.5 11.7606 13.5 11.4845C13.5 11.2084 13.7239 10.9845 14 10.9845H15C14.7239 10.9845 14.5 10.7606 14.5 10.4845C14.5 10.2084 14.7239 9.9845 15 9.9845H21C21.2761 9.9845 21.5 10.2084 21.5 10.4845C21.5 10.7606 21.2761 10.9845 21 10.9845H22C22.2761 10.9845 22.5 11.2084 22.5 11.4845C22.5 11.7606 22.2761 11.9845 22 11.9845H19.2061C19.4867 12.2984 19.6341 12.7279 19.5755 13.1781C19.2906 15.3666 18.3097 17.3174 16.5555 17.9975C15.6862 18.3345 14.8438 18.2924 14.0775 17.9845H14.3235V14.4032C15.0012 15.3838 15.4436 15.211 15.4705 15.2005L15.471 15.2003C15.7061 15.1092 16.3722 14.5458 16.6006 12.7909C16.6412 12.4791 16.7748 12.2022 16.9699 11.9845ZM6.81905 12.5163L9.5 16.9845L12.1809 12.5163C12.6483 12.7102 13.0902 12.9533 13.5 13.2392V22.9845H5.5V13.2392C5.90982 12.9533 6.35166 12.7102 6.81905 12.5163ZM4.5 14.0855V22.9845L2.5 22.9845V18.9845C2.5 17.0772 3.26281 15.348 4.5 14.0855ZM10 18.4845C10 18.7606 9.77614 18.9845 9.5 18.9845C9.22386 18.9845 9 18.7606 9 18.4845C9 18.2084 9.22386 17.9845 9.5 17.9845C9.77614 17.9845 10 18.2084 10 18.4845ZM10 20.4845C10 20.7606 9.77614 20.9845 9.5 20.9845C9.22386 20.9845 9 20.7606 9 20.4845C9 20.2084 9.22386 19.9845 9.5 19.9845C9.77614 19.9845 10 20.2084 10 20.4845Z" fill="#00D615"/>
</svg>
